<mxfile host="app.diagrams.net" modified="2020-10-13T16:20:36.288Z" agent="5.0 (Windows)" etag="QlvGYR0L2P73HZdwD0aA" version="13.7.9" type="github">
  <diagram id="WGUVfmP_Aee79DeUgFBb" name="Page-1">
    <mxGraphModel dx="868" dy="479" grid="1" gridSize="10" guides="1" tooltips="1" connect="1" arrows="1" fold="1" page="1" pageScale="1" pageWidth="827" pageHeight="1169" math="0" shadow="0">
      <root>
        <mxCell id="0" />
        <mxCell id="1" parent="0" />
        <mxCell id="cMFZ7gl1OGEOK8RJZfGv-31" value="Gameboard" style="shape=table;html=1;whiteSpace=wrap;startSize=30;container=1;collapsible=0;childLayout=tableLayout;fixedRows=1;rowLines=0;fontStyle=1;align=center;" parent="1" vertex="1">
          <mxGeometry x="170" y="50" width="310" height="340" as="geometry" />
        </mxCell>
        <mxCell id="cMFZ7gl1OGEOK8RJZfGv-32" value="" style="shape=partialRectangle;html=1;whiteSpace=wrap;collapsible=0;dropTarget=0;pointerEvents=0;fillColor=none;top=0;left=0;bottom=1;right=0;points=[[0,0.5],[1,0.5]];portConstraint=eastwest;" parent="cMFZ7gl1OGEOK8RJZfGv-31" vertex="1">
          <mxGeometry y="30" width="310" height="30" as="geometry" />
        </mxCell>
        <mxCell id="cMFZ7gl1OGEOK8RJZfGv-33" value="Actions" style="shape=partialRectangle;html=1;whiteSpace=wrap;connectable=0;fillColor=none;top=0;left=0;bottom=0;right=0;overflow=hidden;" parent="cMFZ7gl1OGEOK8RJZfGv-32" vertex="1">
          <mxGeometry width="150" height="30" as="geometry" />
        </mxCell>
        <mxCell id="cMFZ7gl1OGEOK8RJZfGv-34" value="Collaborations" style="shape=partialRectangle;html=1;whiteSpace=wrap;connectable=0;fillColor=none;top=0;left=0;bottom=0;right=0;align=left;spacingLeft=6;overflow=hidden;" parent="cMFZ7gl1OGEOK8RJZfGv-32" vertex="1">
          <mxGeometry x="150" width="160" height="30" as="geometry" />
        </mxCell>
        <mxCell id="cMFZ7gl1OGEOK8RJZfGv-35" value="" style="shape=partialRectangle;html=1;whiteSpace=wrap;collapsible=0;dropTarget=0;pointerEvents=0;fillColor=none;top=0;left=0;bottom=0;right=0;points=[[0,0.5],[1,0.5]];portConstraint=eastwest;" parent="cMFZ7gl1OGEOK8RJZfGv-31" vertex="1">
          <mxGeometry y="60" width="310" height="30" as="geometry" />
        </mxCell>
        <mxCell id="cMFZ7gl1OGEOK8RJZfGv-36" value="&lt;div&gt;Get tiles&lt;/div&gt;" style="shape=partialRectangle;html=1;whiteSpace=wrap;connectable=0;fillColor=none;top=0;left=0;bottom=0;right=0;overflow=hidden;" parent="cMFZ7gl1OGEOK8RJZfGv-35" vertex="1">
          <mxGeometry width="150" height="30" as="geometry" />
        </mxCell>
        <mxCell id="cMFZ7gl1OGEOK8RJZfGv-37" value="Tiles" style="shape=partialRectangle;html=1;whiteSpace=wrap;connectable=0;fillColor=none;top=0;left=0;bottom=0;right=0;align=left;spacingLeft=6;overflow=hidden;" parent="cMFZ7gl1OGEOK8RJZfGv-35" vertex="1">
          <mxGeometry x="150" width="160" height="30" as="geometry" />
        </mxCell>
        <mxCell id="cMFZ7gl1OGEOK8RJZfGv-38" value="" style="shape=partialRectangle;html=1;whiteSpace=wrap;collapsible=0;dropTarget=0;pointerEvents=0;fillColor=none;top=0;left=0;bottom=0;right=0;points=[[0,0.5],[1,0.5]];portConstraint=eastwest;" parent="cMFZ7gl1OGEOK8RJZfGv-31" vertex="1">
          <mxGeometry y="90" width="310" height="30" as="geometry" />
        </mxCell>
        <mxCell id="cMFZ7gl1OGEOK8RJZfGv-39" value="Add Tile" style="shape=partialRectangle;html=1;whiteSpace=wrap;connectable=0;fillColor=none;top=0;left=0;bottom=0;right=0;overflow=hidden;" parent="cMFZ7gl1OGEOK8RJZfGv-38" vertex="1">
          <mxGeometry width="150" height="30" as="geometry" />
        </mxCell>
        <mxCell id="cMFZ7gl1OGEOK8RJZfGv-40" value="" style="shape=partialRectangle;html=1;whiteSpace=wrap;connectable=0;fillColor=none;top=0;left=0;bottom=0;right=0;align=left;spacingLeft=6;overflow=hidden;" parent="cMFZ7gl1OGEOK8RJZfGv-38" vertex="1">
          <mxGeometry x="150" width="160" height="30" as="geometry" />
        </mxCell>
        <mxCell id="cMFZ7gl1OGEOK8RJZfGv-41" value="" style="shape=partialRectangle;collapsible=0;dropTarget=0;pointerEvents=0;fillColor=none;top=0;left=0;bottom=0;right=0;points=[[0,0.5],[1,0.5]];portConstraint=eastwest;align=left;" parent="cMFZ7gl1OGEOK8RJZfGv-31" vertex="1">
          <mxGeometry y="120" width="310" height="30" as="geometry" />
        </mxCell>
        <mxCell id="cMFZ7gl1OGEOK8RJZfGv-42" value="Can edge be pushed?" style="shape=partialRectangle;connectable=0;fillColor=none;top=0;left=0;bottom=0;right=0;fontStyle=0;overflow=hidden;" parent="cMFZ7gl1OGEOK8RJZfGv-41" vertex="1">
          <mxGeometry width="150" height="30" as="geometry" />
        </mxCell>
        <mxCell id="cMFZ7gl1OGEOK8RJZfGv-43" value="" style="shape=partialRectangle;connectable=0;fillColor=none;top=0;left=0;bottom=0;right=0;align=left;spacingLeft=6;fontStyle=0;overflow=hidden;" parent="cMFZ7gl1OGEOK8RJZfGv-41" vertex="1">
          <mxGeometry x="150" width="160" height="30" as="geometry" />
        </mxCell>
        <mxCell id="cMFZ7gl1OGEOK8RJZfGv-48" value="" style="shape=partialRectangle;collapsible=0;dropTarget=0;pointerEvents=0;fillColor=none;top=0;left=0;bottom=0;right=0;points=[[0,0.5],[1,0.5]];portConstraint=eastwest;align=left;" parent="cMFZ7gl1OGEOK8RJZfGv-31" vertex="1">
          <mxGeometry y="150" width="310" height="30" as="geometry" />
        </mxCell>
        <mxCell id="cMFZ7gl1OGEOK8RJZfGv-49" value="Place tile" style="shape=partialRectangle;connectable=0;fillColor=none;top=0;left=0;bottom=0;right=0;fontStyle=0;overflow=hidden;" parent="cMFZ7gl1OGEOK8RJZfGv-48" vertex="1">
          <mxGeometry width="150" height="30" as="geometry" />
        </mxCell>
        <mxCell id="cMFZ7gl1OGEOK8RJZfGv-50" value="" style="shape=partialRectangle;connectable=0;fillColor=none;top=0;left=0;bottom=0;right=0;align=left;spacingLeft=6;fontStyle=0;overflow=hidden;" parent="cMFZ7gl1OGEOK8RJZfGv-48" vertex="1">
          <mxGeometry x="150" width="160" height="30" as="geometry" />
        </mxCell>
        <mxCell id="cMFZ7gl1OGEOK8RJZfGv-52" value="" style="shape=partialRectangle;collapsible=0;dropTarget=0;pointerEvents=0;fillColor=none;top=0;left=0;bottom=0;right=0;points=[[0,0.5],[1,0.5]];portConstraint=eastwest;" parent="cMFZ7gl1OGEOK8RJZfGv-31" vertex="1">
          <mxGeometry y="180" width="310" height="30" as="geometry" />
        </mxCell>
        <mxCell id="cMFZ7gl1OGEOK8RJZfGv-53" value="Get Player Location" style="shape=partialRectangle;connectable=0;fillColor=none;top=0;left=0;bottom=0;right=0;fontStyle=0;overflow=hidden;" parent="cMFZ7gl1OGEOK8RJZfGv-52" vertex="1">
          <mxGeometry width="150" height="30" as="geometry" />
        </mxCell>
        <mxCell id="cMFZ7gl1OGEOK8RJZfGv-54" value="" style="shape=partialRectangle;connectable=0;fillColor=none;top=0;left=0;bottom=0;right=0;align=left;spacingLeft=6;fontStyle=0;overflow=hidden;" parent="cMFZ7gl1OGEOK8RJZfGv-52" vertex="1">
          <mxGeometry x="150" width="160" height="30" as="geometry" />
        </mxCell>
        <mxCell id="cMFZ7gl1OGEOK8RJZfGv-55" value="" style="shape=partialRectangle;collapsible=0;dropTarget=0;pointerEvents=0;fillColor=none;top=0;left=0;bottom=0;right=0;points=[[0,0.5],[1,0.5]];portConstraint=eastwest;align=left;" parent="cMFZ7gl1OGEOK8RJZfGv-31" vertex="1">
          <mxGeometry y="210" width="310" height="30" as="geometry" />
        </mxCell>
        <mxCell id="cMFZ7gl1OGEOK8RJZfGv-56" value="Move player piece" style="shape=partialRectangle;connectable=0;fillColor=none;top=0;left=0;bottom=0;right=0;fontStyle=0;overflow=hidden;" parent="cMFZ7gl1OGEOK8RJZfGv-55" vertex="1">
          <mxGeometry width="150" height="30" as="geometry" />
        </mxCell>
        <mxCell id="cMFZ7gl1OGEOK8RJZfGv-57" value="" style="shape=partialRectangle;connectable=0;fillColor=none;top=0;left=0;bottom=0;right=0;align=left;spacingLeft=6;fontStyle=0;overflow=hidden;" parent="cMFZ7gl1OGEOK8RJZfGv-55" vertex="1">
          <mxGeometry x="150" width="160" height="30" as="geometry" />
        </mxCell>
        <mxCell id="cMFZ7gl1OGEOK8RJZfGv-58" value="" style="shape=partialRectangle;collapsible=0;dropTarget=0;pointerEvents=0;fillColor=none;top=0;left=0;bottom=0;right=0;points=[[0,0.5],[1,0.5]];portConstraint=eastwest;align=left;" parent="cMFZ7gl1OGEOK8RJZfGv-31" vertex="1">
          <mxGeometry y="240" width="310" height="30" as="geometry" />
        </mxCell>
        <mxCell id="cMFZ7gl1OGEOK8RJZfGv-59" value="get Size" style="shape=partialRectangle;connectable=0;fillColor=none;top=0;left=0;bottom=0;right=0;fontStyle=0;overflow=hidden;" parent="cMFZ7gl1OGEOK8RJZfGv-58" vertex="1">
          <mxGeometry width="150" height="30" as="geometry" />
        </mxCell>
        <mxCell id="cMFZ7gl1OGEOK8RJZfGv-60" value="" style="shape=partialRectangle;connectable=0;fillColor=none;top=0;left=0;bottom=0;right=0;align=left;spacingLeft=6;fontStyle=0;overflow=hidden;" parent="cMFZ7gl1OGEOK8RJZfGv-58" vertex="1">
          <mxGeometry x="150" width="160" height="30" as="geometry" />
        </mxCell>
        <mxCell id="cMFZ7gl1OGEOK8RJZfGv-61" value="" style="shape=partialRectangle;collapsible=0;dropTarget=0;pointerEvents=0;fillColor=none;top=0;left=0;bottom=0;right=0;points=[[0,0.5],[1,0.5]];portConstraint=eastwest;align=left;" parent="cMFZ7gl1OGEOK8RJZfGv-31" vertex="1">
          <mxGeometry y="270" width="310" height="30" as="geometry" />
        </mxCell>
        <mxCell id="cMFZ7gl1OGEOK8RJZfGv-62" value="Freeze tile" style="shape=partialRectangle;connectable=0;fillColor=none;top=0;left=0;bottom=0;right=0;fontStyle=0;overflow=hidden;" parent="cMFZ7gl1OGEOK8RJZfGv-61" vertex="1">
          <mxGeometry width="150" height="30" as="geometry" />
        </mxCell>
        <mxCell id="cMFZ7gl1OGEOK8RJZfGv-63" value="" style="shape=partialRectangle;connectable=0;fillColor=none;top=0;left=0;bottom=0;right=0;align=left;spacingLeft=6;fontStyle=0;overflow=hidden;" parent="cMFZ7gl1OGEOK8RJZfGv-61" vertex="1">
          <mxGeometry x="150" width="160" height="30" as="geometry" />
        </mxCell>
        <mxCell id="cMFZ7gl1OGEOK8RJZfGv-64" value="" style="shape=partialRectangle;collapsible=0;dropTarget=0;pointerEvents=0;fillColor=none;top=0;left=0;bottom=0;right=0;points=[[0,0.5],[1,0.5]];portConstraint=eastwest;align=left;" parent="cMFZ7gl1OGEOK8RJZfGv-31" vertex="1">
          <mxGeometry y="300" width="310" height="30" as="geometry" />
        </mxCell>
        <mxCell id="cMFZ7gl1OGEOK8RJZfGv-65" value="Flame tile" style="shape=partialRectangle;connectable=0;fillColor=none;top=0;left=0;bottom=0;right=0;fontStyle=0;overflow=hidden;" parent="cMFZ7gl1OGEOK8RJZfGv-64" vertex="1">
          <mxGeometry width="150" height="30" as="geometry" />
        </mxCell>
        <mxCell id="cMFZ7gl1OGEOK8RJZfGv-66" value="" style="shape=partialRectangle;connectable=0;fillColor=none;top=0;left=0;bottom=0;right=0;align=left;spacingLeft=6;fontStyle=0;overflow=hidden;" parent="cMFZ7gl1OGEOK8RJZfGv-64" vertex="1">
          <mxGeometry x="150" width="160" height="30" as="geometry" />
        </mxCell>
        <mxCell id="e2CsVs9QyqSFZ8llmZeh-1" value="Silk Bag" style="shape=table;html=1;whiteSpace=wrap;startSize=30;container=1;collapsible=0;childLayout=tableLayout;fixedRows=1;rowLines=0;fontStyle=1;align=center;" parent="1" vertex="1">
          <mxGeometry x="540" y="50" width="310" height="120" as="geometry" />
        </mxCell>
        <mxCell id="e2CsVs9QyqSFZ8llmZeh-2" value="" style="shape=partialRectangle;html=1;whiteSpace=wrap;collapsible=0;dropTarget=0;pointerEvents=0;fillColor=none;top=0;left=0;bottom=1;right=0;points=[[0,0.5],[1,0.5]];portConstraint=eastwest;" parent="e2CsVs9QyqSFZ8llmZeh-1" vertex="1">
          <mxGeometry y="30" width="310" height="30" as="geometry" />
        </mxCell>
        <mxCell id="e2CsVs9QyqSFZ8llmZeh-3" value="Actions" style="shape=partialRectangle;html=1;whiteSpace=wrap;connectable=0;fillColor=none;top=0;left=0;bottom=0;right=0;overflow=hidden;" parent="e2CsVs9QyqSFZ8llmZeh-2" vertex="1">
          <mxGeometry width="150" height="30" as="geometry" />
        </mxCell>
        <mxCell id="e2CsVs9QyqSFZ8llmZeh-4" value="Collaborations" style="shape=partialRectangle;html=1;whiteSpace=wrap;connectable=0;fillColor=none;top=0;left=0;bottom=0;right=0;align=left;spacingLeft=6;overflow=hidden;" parent="e2CsVs9QyqSFZ8llmZeh-2" vertex="1">
          <mxGeometry x="150" width="160" height="30" as="geometry" />
        </mxCell>
        <mxCell id="e2CsVs9QyqSFZ8llmZeh-5" value="" style="shape=partialRectangle;html=1;whiteSpace=wrap;collapsible=0;dropTarget=0;pointerEvents=0;fillColor=none;top=0;left=0;bottom=0;right=0;points=[[0,0.5],[1,0.5]];portConstraint=eastwest;" parent="e2CsVs9QyqSFZ8llmZeh-1" vertex="1">
          <mxGeometry y="60" width="310" height="30" as="geometry" />
        </mxCell>
        <mxCell id="e2CsVs9QyqSFZ8llmZeh-6" value="Insert Tile" style="shape=partialRectangle;html=1;whiteSpace=wrap;connectable=0;fillColor=none;top=0;left=0;bottom=0;right=0;overflow=hidden;" parent="e2CsVs9QyqSFZ8llmZeh-5" vertex="1">
          <mxGeometry width="150" height="30" as="geometry" />
        </mxCell>
        <mxCell id="e2CsVs9QyqSFZ8llmZeh-7" value="" style="shape=partialRectangle;html=1;whiteSpace=wrap;connectable=0;fillColor=none;top=0;left=0;bottom=0;right=0;align=left;spacingLeft=6;overflow=hidden;" parent="e2CsVs9QyqSFZ8llmZeh-5" vertex="1">
          <mxGeometry x="150" width="160" height="30" as="geometry" />
        </mxCell>
        <mxCell id="e2CsVs9QyqSFZ8llmZeh-8" value="" style="shape=partialRectangle;html=1;whiteSpace=wrap;collapsible=0;dropTarget=0;pointerEvents=0;fillColor=none;top=0;left=0;bottom=0;right=0;points=[[0,0.5],[1,0.5]];portConstraint=eastwest;" parent="e2CsVs9QyqSFZ8llmZeh-1" vertex="1">
          <mxGeometry y="90" width="310" height="30" as="geometry" />
        </mxCell>
        <mxCell id="e2CsVs9QyqSFZ8llmZeh-9" value="Get Random Tile" style="shape=partialRectangle;html=1;whiteSpace=wrap;connectable=0;fillColor=none;top=0;left=0;bottom=0;right=0;overflow=hidden;" parent="e2CsVs9QyqSFZ8llmZeh-8" vertex="1">
          <mxGeometry width="150" height="30" as="geometry" />
        </mxCell>
        <mxCell id="e2CsVs9QyqSFZ8llmZeh-10" value="" style="shape=partialRectangle;html=1;whiteSpace=wrap;connectable=0;fillColor=none;top=0;left=0;bottom=0;right=0;align=left;spacingLeft=6;overflow=hidden;" parent="e2CsVs9QyqSFZ8llmZeh-8" vertex="1">
          <mxGeometry x="150" width="160" height="30" as="geometry" />
        </mxCell>
        <mxCell id="e2CsVs9QyqSFZ8llmZeh-127" value="File reader" style="shape=table;html=1;whiteSpace=wrap;startSize=30;container=1;collapsible=0;childLayout=tableLayout;fixedRows=1;rowLines=0;fontStyle=1;align=center;" parent="1" vertex="1">
          <mxGeometry x="930" y="150" width="310" height="250" as="geometry" />
        </mxCell>
        <mxCell id="e2CsVs9QyqSFZ8llmZeh-128" value="" style="shape=partialRectangle;html=1;whiteSpace=wrap;collapsible=0;dropTarget=0;pointerEvents=0;fillColor=none;top=0;left=0;bottom=1;right=0;points=[[0,0.5],[1,0.5]];portConstraint=eastwest;" parent="e2CsVs9QyqSFZ8llmZeh-127" vertex="1">
          <mxGeometry y="30" width="310" height="30" as="geometry" />
        </mxCell>
        <mxCell id="e2CsVs9QyqSFZ8llmZeh-129" value="Actions" style="shape=partialRectangle;html=1;whiteSpace=wrap;connectable=0;fillColor=none;top=0;left=0;bottom=0;right=0;overflow=hidden;" parent="e2CsVs9QyqSFZ8llmZeh-128" vertex="1">
          <mxGeometry width="150" height="30" as="geometry" />
        </mxCell>
        <mxCell id="e2CsVs9QyqSFZ8llmZeh-130" value="Collaborations" style="shape=partialRectangle;html=1;whiteSpace=wrap;connectable=0;fillColor=none;top=0;left=0;bottom=0;right=0;align=left;spacingLeft=6;overflow=hidden;" parent="e2CsVs9QyqSFZ8llmZeh-128" vertex="1">
          <mxGeometry x="150" width="160" height="30" as="geometry" />
        </mxCell>
        <mxCell id="e2CsVs9QyqSFZ8llmZeh-131" value="" style="shape=partialRectangle;html=1;whiteSpace=wrap;collapsible=0;dropTarget=0;pointerEvents=0;fillColor=none;top=0;left=0;bottom=0;right=0;points=[[0,0.5],[1,0.5]];portConstraint=eastwest;" parent="e2CsVs9QyqSFZ8llmZeh-127" vertex="1">
          <mxGeometry y="60" width="310" height="30" as="geometry" />
        </mxCell>
        <mxCell id="e2CsVs9QyqSFZ8llmZeh-132" value="Read Gameboard File" style="shape=partialRectangle;html=1;whiteSpace=wrap;connectable=0;fillColor=none;top=0;left=0;bottom=0;right=0;overflow=hidden;" parent="e2CsVs9QyqSFZ8llmZeh-131" vertex="1">
          <mxGeometry width="150" height="30" as="geometry" />
        </mxCell>
        <mxCell id="e2CsVs9QyqSFZ8llmZeh-133" value="&lt;div&gt;Player&lt;/div&gt;" style="shape=partialRectangle;html=1;whiteSpace=wrap;connectable=0;fillColor=none;top=0;left=0;bottom=0;right=0;align=left;spacingLeft=6;overflow=hidden;" parent="e2CsVs9QyqSFZ8llmZeh-131" vertex="1">
          <mxGeometry x="150" width="160" height="30" as="geometry" />
        </mxCell>
        <mxCell id="e2CsVs9QyqSFZ8llmZeh-134" value="" style="shape=partialRectangle;html=1;whiteSpace=wrap;collapsible=0;dropTarget=0;pointerEvents=0;fillColor=none;top=0;left=0;bottom=0;right=0;points=[[0,0.5],[1,0.5]];portConstraint=eastwest;" parent="e2CsVs9QyqSFZ8llmZeh-127" vertex="1">
          <mxGeometry y="90" width="310" height="30" as="geometry" />
        </mxCell>
        <mxCell id="e2CsVs9QyqSFZ8llmZeh-135" value="Read Player profile" style="shape=partialRectangle;html=1;whiteSpace=wrap;connectable=0;fillColor=none;top=0;left=0;bottom=0;right=0;overflow=hidden;" parent="e2CsVs9QyqSFZ8llmZeh-134" vertex="1">
          <mxGeometry width="150" height="30" as="geometry" />
        </mxCell>
        <mxCell id="e2CsVs9QyqSFZ8llmZeh-136" value="Gameboard" style="shape=partialRectangle;html=1;whiteSpace=wrap;connectable=0;fillColor=none;top=0;left=0;bottom=0;right=0;align=left;spacingLeft=6;overflow=hidden;" parent="e2CsVs9QyqSFZ8llmZeh-134" vertex="1">
          <mxGeometry x="150" width="160" height="30" as="geometry" />
        </mxCell>
        <mxCell id="e2CsVs9QyqSFZ8llmZeh-137" value="" style="shape=partialRectangle;collapsible=0;dropTarget=0;pointerEvents=0;fillColor=none;top=0;left=0;bottom=0;right=0;points=[[0,0.5],[1,0.5]];portConstraint=eastwest;align=left;" parent="e2CsVs9QyqSFZ8llmZeh-127" vertex="1">
          <mxGeometry y="120" width="310" height="30" as="geometry" />
        </mxCell>
        <mxCell id="e2CsVs9QyqSFZ8llmZeh-138" value="Read Leaderboard File" style="shape=partialRectangle;connectable=0;fillColor=none;top=0;left=0;bottom=0;right=0;fontStyle=0;overflow=hidden;" parent="e2CsVs9QyqSFZ8llmZeh-137" vertex="1">
          <mxGeometry width="150" height="30" as="geometry" />
        </mxCell>
        <mxCell id="e2CsVs9QyqSFZ8llmZeh-139" value="Leaderbaord" style="shape=partialRectangle;connectable=0;fillColor=none;top=0;left=0;bottom=0;right=0;align=left;spacingLeft=6;fontStyle=0;overflow=hidden;" parent="e2CsVs9QyqSFZ8llmZeh-137" vertex="1">
          <mxGeometry x="150" width="160" height="30" as="geometry" />
        </mxCell>
        <mxCell id="e2CsVs9QyqSFZ8llmZeh-140" value="" style="shape=partialRectangle;collapsible=0;dropTarget=0;pointerEvents=0;fillColor=none;top=0;left=0;bottom=0;right=0;points=[[0,0.5],[1,0.5]];portConstraint=eastwest;align=left;" parent="e2CsVs9QyqSFZ8llmZeh-127" vertex="1">
          <mxGeometry y="150" width="310" height="30" as="geometry" />
        </mxCell>
        <mxCell id="e2CsVs9QyqSFZ8llmZeh-141" value="Write Gameboard File" style="shape=partialRectangle;connectable=0;fillColor=none;top=0;left=0;bottom=0;right=0;fontStyle=0;overflow=hidden;" parent="e2CsVs9QyqSFZ8llmZeh-140" vertex="1">
          <mxGeometry width="150" height="30" as="geometry" />
        </mxCell>
        <mxCell id="e2CsVs9QyqSFZ8llmZeh-142" value="" style="shape=partialRectangle;connectable=0;fillColor=none;top=0;left=0;bottom=0;right=0;align=left;spacingLeft=6;fontStyle=0;overflow=hidden;" parent="e2CsVs9QyqSFZ8llmZeh-140" vertex="1">
          <mxGeometry x="150" width="160" height="30" as="geometry" />
        </mxCell>
        <mxCell id="e2CsVs9QyqSFZ8llmZeh-143" value="" style="shape=partialRectangle;collapsible=0;dropTarget=0;pointerEvents=0;fillColor=none;top=0;left=0;bottom=0;right=0;points=[[0,0.5],[1,0.5]];portConstraint=eastwest;" parent="e2CsVs9QyqSFZ8llmZeh-127" vertex="1">
          <mxGeometry y="180" width="310" height="30" as="geometry" />
        </mxCell>
        <mxCell id="e2CsVs9QyqSFZ8llmZeh-144" value="Write Player Profile" style="shape=partialRectangle;connectable=0;fillColor=none;top=0;left=0;bottom=0;right=0;fontStyle=0;overflow=hidden;" parent="e2CsVs9QyqSFZ8llmZeh-143" vertex="1">
          <mxGeometry width="150" height="30" as="geometry" />
        </mxCell>
        <mxCell id="e2CsVs9QyqSFZ8llmZeh-145" value="" style="shape=partialRectangle;connectable=0;fillColor=none;top=0;left=0;bottom=0;right=0;align=left;spacingLeft=6;fontStyle=0;overflow=hidden;" parent="e2CsVs9QyqSFZ8llmZeh-143" vertex="1">
          <mxGeometry x="150" width="160" height="30" as="geometry" />
        </mxCell>
        <mxCell id="e2CsVs9QyqSFZ8llmZeh-146" value="" style="shape=partialRectangle;collapsible=0;dropTarget=0;pointerEvents=0;fillColor=none;top=0;left=0;bottom=0;right=0;points=[[0,0.5],[1,0.5]];portConstraint=eastwest;align=left;" parent="e2CsVs9QyqSFZ8llmZeh-127" vertex="1">
          <mxGeometry y="210" width="310" height="30" as="geometry" />
        </mxCell>
        <mxCell id="e2CsVs9QyqSFZ8llmZeh-147" value="Write Leaderboard File" style="shape=partialRectangle;connectable=0;fillColor=none;top=0;left=0;bottom=0;right=0;fontStyle=0;overflow=hidden;" parent="e2CsVs9QyqSFZ8llmZeh-146" vertex="1">
          <mxGeometry width="150" height="30" as="geometry" />
        </mxCell>
        <mxCell id="e2CsVs9QyqSFZ8llmZeh-148" value="" style="shape=partialRectangle;connectable=0;fillColor=none;top=0;left=0;bottom=0;right=0;align=left;spacingLeft=6;fontStyle=0;overflow=hidden;" parent="e2CsVs9QyqSFZ8llmZeh-146" vertex="1">
          <mxGeometry x="150" width="160" height="30" as="geometry" />
        </mxCell>
        <mxCell id="e2CsVs9QyqSFZ8llmZeh-79" value="+ item: attribute" style="text;strokeColor=none;fillColor=none;align=left;verticalAlign=top;spacingLeft=4;spacingRight=4;overflow=hidden;rotatable=0;points=[[0,0.5],[1,0.5]];portConstraint=eastwest;" parent="1" vertex="1">
          <mxGeometry x="250" y="820" width="100" height="26" as="geometry" />
        </mxCell>
        <mxCell id="e2CsVs9QyqSFZ8llmZeh-89" value="Tile" style="shape=table;html=1;whiteSpace=wrap;startSize=30;container=1;collapsible=0;childLayout=tableLayout;fixedRows=1;rowLines=0;fontStyle=1;align=center;" parent="1" vertex="1">
          <mxGeometry x="170" y="420" width="310" height="290" as="geometry" />
        </mxCell>
        <mxCell id="e2CsVs9QyqSFZ8llmZeh-90" value="" style="shape=partialRectangle;html=1;whiteSpace=wrap;collapsible=0;dropTarget=0;pointerEvents=0;fillColor=none;top=0;left=0;bottom=1;right=0;points=[[0,0.5],[1,0.5]];portConstraint=eastwest;" parent="e2CsVs9QyqSFZ8llmZeh-89" vertex="1">
          <mxGeometry y="30" width="310" height="30" as="geometry" />
        </mxCell>
        <mxCell id="e2CsVs9QyqSFZ8llmZeh-91" value="Actions" style="shape=partialRectangle;html=1;whiteSpace=wrap;connectable=0;fillColor=none;top=0;left=0;bottom=0;right=0;overflow=hidden;" parent="e2CsVs9QyqSFZ8llmZeh-90" vertex="1">
          <mxGeometry width="150" height="30" as="geometry" />
        </mxCell>
        <mxCell id="e2CsVs9QyqSFZ8llmZeh-92" value="Collaborations" style="shape=partialRectangle;html=1;whiteSpace=wrap;connectable=0;fillColor=none;top=0;left=0;bottom=0;right=0;align=left;spacingLeft=6;overflow=hidden;" parent="e2CsVs9QyqSFZ8llmZeh-90" vertex="1">
          <mxGeometry x="150" width="160" height="30" as="geometry" />
        </mxCell>
        <mxCell id="e2CsVs9QyqSFZ8llmZeh-93" value="" style="shape=partialRectangle;html=1;whiteSpace=wrap;collapsible=0;dropTarget=0;pointerEvents=0;fillColor=none;top=0;left=0;bottom=0;right=0;points=[[0,0.5],[1,0.5]];portConstraint=eastwest;" parent="e2CsVs9QyqSFZ8llmZeh-89" vertex="1">
          <mxGeometry y="60" width="310" height="30" as="geometry" />
        </mxCell>
        <mxCell id="e2CsVs9QyqSFZ8llmZeh-94" value="&lt;div&gt;Type&lt;/div&gt;" style="shape=partialRectangle;html=1;whiteSpace=wrap;connectable=0;fillColor=none;top=0;left=0;bottom=0;right=0;overflow=hidden;" parent="e2CsVs9QyqSFZ8llmZeh-93" vertex="1">
          <mxGeometry width="150" height="30" as="geometry" />
        </mxCell>
        <mxCell id="e2CsVs9QyqSFZ8llmZeh-95" value="" style="shape=partialRectangle;html=1;whiteSpace=wrap;connectable=0;fillColor=none;top=0;left=0;bottom=0;right=0;align=left;spacingLeft=6;overflow=hidden;" parent="e2CsVs9QyqSFZ8llmZeh-93" vertex="1">
          <mxGeometry x="150" width="160" height="30" as="geometry" />
        </mxCell>
        <mxCell id="e2CsVs9QyqSFZ8llmZeh-96" value="" style="shape=partialRectangle;html=1;whiteSpace=wrap;collapsible=0;dropTarget=0;pointerEvents=0;fillColor=none;top=0;left=0;bottom=0;right=0;points=[[0,0.5],[1,0.5]];portConstraint=eastwest;" parent="e2CsVs9QyqSFZ8llmZeh-89" vertex="1">
          <mxGeometry y="90" width="310" height="40" as="geometry" />
        </mxCell>
        <mxCell id="e2CsVs9QyqSFZ8llmZeh-97" value="Is on fire" style="shape=partialRectangle;html=1;whiteSpace=wrap;connectable=0;fillColor=none;top=0;left=0;bottom=0;right=0;overflow=hidden;" parent="e2CsVs9QyqSFZ8llmZeh-96" vertex="1">
          <mxGeometry width="150" height="40" as="geometry" />
        </mxCell>
        <mxCell id="e2CsVs9QyqSFZ8llmZeh-98" value="" style="shape=partialRectangle;html=1;whiteSpace=wrap;connectable=0;fillColor=none;top=0;left=0;bottom=0;right=0;align=left;spacingLeft=6;overflow=hidden;" parent="e2CsVs9QyqSFZ8llmZeh-96" vertex="1">
          <mxGeometry x="150" width="160" height="40" as="geometry" />
        </mxCell>
        <mxCell id="e2CsVs9QyqSFZ8llmZeh-99" value="" style="shape=partialRectangle;collapsible=0;dropTarget=0;pointerEvents=0;fillColor=none;top=0;left=0;bottom=0;right=0;points=[[0,0.5],[1,0.5]];portConstraint=eastwest;align=left;" parent="e2CsVs9QyqSFZ8llmZeh-89" vertex="1">
          <mxGeometry y="130" width="310" height="30" as="geometry" />
        </mxCell>
        <mxCell id="e2CsVs9QyqSFZ8llmZeh-100" value="is Frozen" style="shape=partialRectangle;connectable=0;fillColor=none;top=0;left=0;bottom=0;right=0;fontStyle=0;overflow=hidden;" parent="e2CsVs9QyqSFZ8llmZeh-99" vertex="1">
          <mxGeometry width="150" height="30" as="geometry" />
        </mxCell>
        <mxCell id="e2CsVs9QyqSFZ8llmZeh-101" value="" style="shape=partialRectangle;connectable=0;fillColor=none;top=0;left=0;bottom=0;right=0;align=left;spacingLeft=6;fontStyle=0;overflow=hidden;" parent="e2CsVs9QyqSFZ8llmZeh-99" vertex="1">
          <mxGeometry x="150" width="160" height="30" as="geometry" />
        </mxCell>
        <mxCell id="e2CsVs9QyqSFZ8llmZeh-123" style="shape=partialRectangle;collapsible=0;dropTarget=0;pointerEvents=0;fillColor=none;top=0;left=0;bottom=0;right=0;points=[[0,0.5],[1,0.5]];portConstraint=eastwest;align=left;" parent="e2CsVs9QyqSFZ8llmZeh-89" vertex="1">
          <mxGeometry y="160" width="310" height="30" as="geometry" />
        </mxCell>
        <mxCell id="e2CsVs9QyqSFZ8llmZeh-124" value="Freese" style="shape=partialRectangle;connectable=0;fillColor=none;top=0;left=0;bottom=0;right=0;fontStyle=0;overflow=hidden;" parent="e2CsVs9QyqSFZ8llmZeh-123" vertex="1">
          <mxGeometry width="150" height="30" as="geometry" />
        </mxCell>
        <mxCell id="e2CsVs9QyqSFZ8llmZeh-125" style="shape=partialRectangle;connectable=0;fillColor=none;top=0;left=0;bottom=0;right=0;align=left;spacingLeft=6;fontStyle=0;overflow=hidden;" parent="e2CsVs9QyqSFZ8llmZeh-123" vertex="1">
          <mxGeometry x="150" width="160" height="30" as="geometry" />
        </mxCell>
        <mxCell id="e2CsVs9QyqSFZ8llmZeh-120" style="shape=partialRectangle;collapsible=0;dropTarget=0;pointerEvents=0;fillColor=none;top=0;left=0;bottom=0;right=0;points=[[0,0.5],[1,0.5]];portConstraint=eastwest;align=left;" parent="e2CsVs9QyqSFZ8llmZeh-89" vertex="1">
          <mxGeometry y="190" width="310" height="30" as="geometry" />
        </mxCell>
        <mxCell id="e2CsVs9QyqSFZ8llmZeh-121" value="set on fire" style="shape=partialRectangle;connectable=0;fillColor=none;top=0;left=0;bottom=0;right=0;fontStyle=0;overflow=hidden;" parent="e2CsVs9QyqSFZ8llmZeh-120" vertex="1">
          <mxGeometry width="150" height="30" as="geometry" />
        </mxCell>
        <mxCell id="e2CsVs9QyqSFZ8llmZeh-122" style="shape=partialRectangle;connectable=0;fillColor=none;top=0;left=0;bottom=0;right=0;align=left;spacingLeft=6;fontStyle=0;overflow=hidden;" parent="e2CsVs9QyqSFZ8llmZeh-120" vertex="1">
          <mxGeometry x="150" width="160" height="30" as="geometry" />
        </mxCell>
        <mxCell id="e2CsVs9QyqSFZ8llmZeh-102" value="" style="shape=partialRectangle;collapsible=0;dropTarget=0;pointerEvents=0;fillColor=none;top=0;left=0;bottom=0;right=0;points=[[0,0.5],[1,0.5]];portConstraint=eastwest;align=left;" parent="e2CsVs9QyqSFZ8llmZeh-89" vertex="1">
          <mxGeometry y="220" width="310" height="30" as="geometry" />
        </mxCell>
        <mxCell id="e2CsVs9QyqSFZ8llmZeh-103" value="When is effect removed?" style="shape=partialRectangle;connectable=0;fillColor=none;top=0;left=0;bottom=0;right=0;fontStyle=0;overflow=hidden;" parent="e2CsVs9QyqSFZ8llmZeh-102" vertex="1">
          <mxGeometry width="150" height="30" as="geometry" />
        </mxCell>
        <mxCell id="e2CsVs9QyqSFZ8llmZeh-104" value="" style="shape=partialRectangle;connectable=0;fillColor=none;top=0;left=0;bottom=0;right=0;align=left;spacingLeft=6;fontStyle=0;overflow=hidden;" parent="e2CsVs9QyqSFZ8llmZeh-102" vertex="1">
          <mxGeometry x="150" width="160" height="30" as="geometry" />
        </mxCell>
        <mxCell id="e2CsVs9QyqSFZ8llmZeh-117" value="" style="shape=partialRectangle;collapsible=0;dropTarget=0;pointerEvents=0;fillColor=none;top=0;left=0;bottom=0;right=0;points=[[0,0.5],[1,0.5]];portConstraint=eastwest;align=left;" parent="e2CsVs9QyqSFZ8llmZeh-89" vertex="1">
          <mxGeometry y="250" width="310" height="30" as="geometry" />
        </mxCell>
        <mxCell id="e2CsVs9QyqSFZ8llmZeh-118" value="is Fixed?" style="shape=partialRectangle;connectable=0;fillColor=none;top=0;left=0;bottom=0;right=0;fontStyle=0;overflow=hidden;" parent="e2CsVs9QyqSFZ8llmZeh-117" vertex="1">
          <mxGeometry width="150" height="30" as="geometry" />
        </mxCell>
        <mxCell id="e2CsVs9QyqSFZ8llmZeh-119" value="" style="shape=partialRectangle;connectable=0;fillColor=none;top=0;left=0;bottom=0;right=0;align=left;spacingLeft=6;fontStyle=0;overflow=hidden;" parent="e2CsVs9QyqSFZ8llmZeh-117" vertex="1">
          <mxGeometry x="150" width="160" height="30" as="geometry" />
        </mxCell>
        <mxCell id="e2CsVs9QyqSFZ8llmZeh-42" value="Player" style="shape=table;html=1;whiteSpace=wrap;startSize=30;container=1;collapsible=0;childLayout=tableLayout;fixedRows=1;rowLines=0;fontStyle=1;align=center;" parent="1" vertex="1">
          <mxGeometry x="540" y="210" width="310" height="340" as="geometry" />
        </mxCell>
        <mxCell id="e2CsVs9QyqSFZ8llmZeh-43" value="" style="shape=partialRectangle;html=1;whiteSpace=wrap;collapsible=0;dropTarget=0;pointerEvents=0;fillColor=none;top=0;left=0;bottom=1;right=0;points=[[0,0.5],[1,0.5]];portConstraint=eastwest;" parent="e2CsVs9QyqSFZ8llmZeh-42" vertex="1">
          <mxGeometry y="30" width="310" height="30" as="geometry" />
        </mxCell>
        <mxCell id="e2CsVs9QyqSFZ8llmZeh-44" value="Actions" style="shape=partialRectangle;html=1;whiteSpace=wrap;connectable=0;fillColor=none;top=0;left=0;bottom=0;right=0;overflow=hidden;" parent="e2CsVs9QyqSFZ8llmZeh-43" vertex="1">
          <mxGeometry width="150" height="30" as="geometry" />
        </mxCell>
        <mxCell id="e2CsVs9QyqSFZ8llmZeh-45" value="Collaborations" style="shape=partialRectangle;html=1;whiteSpace=wrap;connectable=0;fillColor=none;top=0;left=0;bottom=0;right=0;align=left;spacingLeft=6;overflow=hidden;" parent="e2CsVs9QyqSFZ8llmZeh-43" vertex="1">
          <mxGeometry x="150" width="160" height="30" as="geometry" />
        </mxCell>
        <mxCell id="e2CsVs9QyqSFZ8llmZeh-46" value="" style="shape=partialRectangle;html=1;whiteSpace=wrap;collapsible=0;dropTarget=0;pointerEvents=0;fillColor=none;top=0;left=0;bottom=0;right=0;points=[[0,0.5],[1,0.5]];portConstraint=eastwest;" parent="e2CsVs9QyqSFZ8llmZeh-42" vertex="1">
          <mxGeometry y="60" width="310" height="30" as="geometry" />
        </mxCell>
        <mxCell id="e2CsVs9QyqSFZ8llmZeh-47" value="Get Name" style="shape=partialRectangle;html=1;whiteSpace=wrap;connectable=0;fillColor=none;top=0;left=0;bottom=0;right=0;overflow=hidden;" parent="e2CsVs9QyqSFZ8llmZeh-46" vertex="1">
          <mxGeometry width="150" height="30" as="geometry" />
        </mxCell>
        <mxCell id="e2CsVs9QyqSFZ8llmZeh-48" value="Game board" style="shape=partialRectangle;html=1;whiteSpace=wrap;connectable=0;fillColor=none;top=0;left=0;bottom=0;right=0;align=left;spacingLeft=6;overflow=hidden;" parent="e2CsVs9QyqSFZ8llmZeh-46" vertex="1">
          <mxGeometry x="150" width="160" height="30" as="geometry" />
        </mxCell>
        <mxCell id="e2CsVs9QyqSFZ8llmZeh-49" value="" style="shape=partialRectangle;html=1;whiteSpace=wrap;collapsible=0;dropTarget=0;pointerEvents=0;fillColor=none;top=0;left=0;bottom=0;right=0;points=[[0,0.5],[1,0.5]];portConstraint=eastwest;" parent="e2CsVs9QyqSFZ8llmZeh-42" vertex="1">
          <mxGeometry y="90" width="310" height="30" as="geometry" />
        </mxCell>
        <mxCell id="e2CsVs9QyqSFZ8llmZeh-50" value="Number of Games Played" style="shape=partialRectangle;html=1;whiteSpace=wrap;connectable=0;fillColor=none;top=0;left=0;bottom=0;right=0;overflow=hidden;" parent="e2CsVs9QyqSFZ8llmZeh-49" vertex="1">
          <mxGeometry width="150" height="30" as="geometry" />
        </mxCell>
        <mxCell id="e2CsVs9QyqSFZ8llmZeh-51" value="Tiles" style="shape=partialRectangle;html=1;whiteSpace=wrap;connectable=0;fillColor=none;top=0;left=0;bottom=0;right=0;align=left;spacingLeft=6;overflow=hidden;" parent="e2CsVs9QyqSFZ8llmZeh-49" vertex="1">
          <mxGeometry x="150" width="160" height="30" as="geometry" />
        </mxCell>
        <mxCell id="e2CsVs9QyqSFZ8llmZeh-52" value="" style="shape=partialRectangle;collapsible=0;dropTarget=0;pointerEvents=0;fillColor=none;top=0;left=0;bottom=0;right=0;points=[[0,0.5],[1,0.5]];portConstraint=eastwest;align=left;" parent="e2CsVs9QyqSFZ8llmZeh-42" vertex="1">
          <mxGeometry y="120" width="310" height="30" as="geometry" />
        </mxCell>
        <mxCell id="e2CsVs9QyqSFZ8llmZeh-53" value="Number of games won" style="shape=partialRectangle;connectable=0;fillColor=none;top=0;left=0;bottom=0;right=0;fontStyle=0;overflow=hidden;" parent="e2CsVs9QyqSFZ8llmZeh-52" vertex="1">
          <mxGeometry width="150" height="30" as="geometry" />
        </mxCell>
        <mxCell id="e2CsVs9QyqSFZ8llmZeh-54" value="Silk bag" style="shape=partialRectangle;connectable=0;fillColor=none;top=0;left=0;bottom=0;right=0;align=left;spacingLeft=6;fontStyle=0;overflow=hidden;" parent="e2CsVs9QyqSFZ8llmZeh-52" vertex="1">
          <mxGeometry x="150" width="160" height="30" as="geometry" />
        </mxCell>
        <mxCell id="e2CsVs9QyqSFZ8llmZeh-55" value="" style="shape=partialRectangle;collapsible=0;dropTarget=0;pointerEvents=0;fillColor=none;top=0;left=0;bottom=0;right=0;points=[[0,0.5],[1,0.5]];portConstraint=eastwest;align=left;" parent="e2CsVs9QyqSFZ8llmZeh-42" vertex="1">
          <mxGeometry y="150" width="310" height="30" as="geometry" />
        </mxCell>
        <mxCell id="e2CsVs9QyqSFZ8llmZeh-56" value="Current Tiles" style="shape=partialRectangle;connectable=0;fillColor=none;top=0;left=0;bottom=0;right=0;fontStyle=0;overflow=hidden;" parent="e2CsVs9QyqSFZ8llmZeh-55" vertex="1">
          <mxGeometry width="150" height="30" as="geometry" />
        </mxCell>
        <mxCell id="e2CsVs9QyqSFZ8llmZeh-57" value="" style="shape=partialRectangle;connectable=0;fillColor=none;top=0;left=0;bottom=0;right=0;align=left;spacingLeft=6;fontStyle=0;overflow=hidden;" parent="e2CsVs9QyqSFZ8llmZeh-55" vertex="1">
          <mxGeometry x="150" width="160" height="30" as="geometry" />
        </mxCell>
        <mxCell id="e2CsVs9QyqSFZ8llmZeh-58" value="" style="shape=partialRectangle;collapsible=0;dropTarget=0;pointerEvents=0;fillColor=none;top=0;left=0;bottom=0;right=0;points=[[0,0.5],[1,0.5]];portConstraint=eastwest;" parent="e2CsVs9QyqSFZ8llmZeh-42" vertex="1">
          <mxGeometry y="180" width="310" height="30" as="geometry" />
        </mxCell>
        <mxCell id="e2CsVs9QyqSFZ8llmZeh-59" value="Player number" style="shape=partialRectangle;connectable=0;fillColor=none;top=0;left=0;bottom=0;right=0;fontStyle=0;overflow=hidden;" parent="e2CsVs9QyqSFZ8llmZeh-58" vertex="1">
          <mxGeometry width="150" height="30" as="geometry" />
        </mxCell>
        <mxCell id="e2CsVs9QyqSFZ8llmZeh-60" value="" style="shape=partialRectangle;connectable=0;fillColor=none;top=0;left=0;bottom=0;right=0;align=left;spacingLeft=6;fontStyle=0;overflow=hidden;" parent="e2CsVs9QyqSFZ8llmZeh-58" vertex="1">
          <mxGeometry x="150" width="160" height="30" as="geometry" />
        </mxCell>
        <mxCell id="e2CsVs9QyqSFZ8llmZeh-61" value="" style="shape=partialRectangle;collapsible=0;dropTarget=0;pointerEvents=0;fillColor=none;top=0;left=0;bottom=0;right=0;points=[[0,0.5],[1,0.5]];portConstraint=eastwest;align=left;" parent="e2CsVs9QyqSFZ8llmZeh-42" vertex="1">
          <mxGeometry y="210" width="310" height="30" as="geometry" />
        </mxCell>
        <mxCell id="e2CsVs9QyqSFZ8llmZeh-62" value="Where to move" style="shape=partialRectangle;connectable=0;fillColor=none;top=0;left=0;bottom=0;right=0;fontStyle=0;overflow=hidden;" parent="e2CsVs9QyqSFZ8llmZeh-61" vertex="1">
          <mxGeometry width="150" height="30" as="geometry" />
        </mxCell>
        <mxCell id="e2CsVs9QyqSFZ8llmZeh-63" value="" style="shape=partialRectangle;connectable=0;fillColor=none;top=0;left=0;bottom=0;right=0;align=left;spacingLeft=6;fontStyle=0;overflow=hidden;" parent="e2CsVs9QyqSFZ8llmZeh-61" vertex="1">
          <mxGeometry x="150" width="160" height="30" as="geometry" />
        </mxCell>
        <mxCell id="e2CsVs9QyqSFZ8llmZeh-64" value="" style="shape=partialRectangle;collapsible=0;dropTarget=0;pointerEvents=0;fillColor=none;top=0;left=0;bottom=0;right=0;points=[[0,0.5],[1,0.5]];portConstraint=eastwest;align=left;" parent="e2CsVs9QyqSFZ8llmZeh-42" vertex="1">
          <mxGeometry y="240" width="310" height="30" as="geometry" />
        </mxCell>
        <mxCell id="e2CsVs9QyqSFZ8llmZeh-65" value="Play Action card" style="shape=partialRectangle;connectable=0;fillColor=none;top=0;left=0;bottom=0;right=0;fontStyle=0;overflow=hidden;" parent="e2CsVs9QyqSFZ8llmZeh-64" vertex="1">
          <mxGeometry width="150" height="30" as="geometry" />
        </mxCell>
        <mxCell id="e2CsVs9QyqSFZ8llmZeh-66" value="" style="shape=partialRectangle;connectable=0;fillColor=none;top=0;left=0;bottom=0;right=0;align=left;spacingLeft=6;fontStyle=0;overflow=hidden;" parent="e2CsVs9QyqSFZ8llmZeh-64" vertex="1">
          <mxGeometry x="150" width="160" height="30" as="geometry" />
        </mxCell>
        <mxCell id="e2CsVs9QyqSFZ8llmZeh-67" value="" style="shape=partialRectangle;collapsible=0;dropTarget=0;pointerEvents=0;fillColor=none;top=0;left=0;bottom=0;right=0;points=[[0,0.5],[1,0.5]];portConstraint=eastwest;align=left;" parent="e2CsVs9QyqSFZ8llmZeh-42" vertex="1">
          <mxGeometry y="270" width="310" height="30" as="geometry" />
        </mxCell>
        <mxCell id="e2CsVs9QyqSFZ8llmZeh-68" value="Place tile" style="shape=partialRectangle;connectable=0;fillColor=none;top=0;left=0;bottom=0;right=0;fontStyle=0;overflow=hidden;" parent="e2CsVs9QyqSFZ8llmZeh-67" vertex="1">
          <mxGeometry width="150" height="30" as="geometry" />
        </mxCell>
        <mxCell id="e2CsVs9QyqSFZ8llmZeh-69" value="" style="shape=partialRectangle;connectable=0;fillColor=none;top=0;left=0;bottom=0;right=0;align=left;spacingLeft=6;fontStyle=0;overflow=hidden;" parent="e2CsVs9QyqSFZ8llmZeh-67" vertex="1">
          <mxGeometry x="150" width="160" height="30" as="geometry" />
        </mxCell>
        <mxCell id="e2CsVs9QyqSFZ8llmZeh-70" value="" style="shape=partialRectangle;collapsible=0;dropTarget=0;pointerEvents=0;fillColor=none;top=0;left=0;bottom=0;right=0;points=[[0,0.5],[1,0.5]];portConstraint=eastwest;align=left;" parent="e2CsVs9QyqSFZ8llmZeh-42" vertex="1">
          <mxGeometry y="300" width="310" height="30" as="geometry" />
        </mxCell>
        <mxCell id="e2CsVs9QyqSFZ8llmZeh-71" value="" style="shape=partialRectangle;connectable=0;fillColor=none;top=0;left=0;bottom=0;right=0;fontStyle=0;overflow=hidden;" parent="e2CsVs9QyqSFZ8llmZeh-70" vertex="1">
          <mxGeometry width="150" height="30" as="geometry" />
        </mxCell>
        <mxCell id="e2CsVs9QyqSFZ8llmZeh-72" value="" style="shape=partialRectangle;connectable=0;fillColor=none;top=0;left=0;bottom=0;right=0;align=left;spacingLeft=6;fontStyle=0;overflow=hidden;" parent="e2CsVs9QyqSFZ8llmZeh-70" vertex="1">
          <mxGeometry x="150" width="160" height="30" as="geometry" />
        </mxCell>
      </root>
    </mxGraphModel>
  </diagram>
</mxfile>
